<?xml version="1.0" encoding="iso-8859-1"?>
<!-- Generator: Adobe Illustrator 19.0.0, SVG Export Plug-In . SVG Version: 6.00 Build 0)  -->
<svg version="1.1" id="Layer_1" xmlns="http://www.w3.org/2000/svg" xmlns:xlink="http://www.w3.org/1999/xlink" x="0px" y="0px"
	 viewBox="0 0 488.104 488.104" style="enable-background:new 0 0 488.104 488.104;" xml:space="preserve">
<g transform="translate(0 -540.36)">
	<g>
		<g>
			<path d="M130.4,845.464c-16.8,0-30.5,13.7-30.5,30.5s13.7,30.5,30.5,30.5s30.5-13.7,30.5-30.5S147.2,845.464,130.4,845.464z
				 M130.4,886.464c-5.9,0-10.5-4.6-10.5-10.5s4.6-10.5,10.5-10.5c5.9,0,10.5,4.6,10.5,10.5S136.3,886.464,130.4,886.464z"/>
			<path d="M357.8,845.464c-16.6,0-30.1,13.7-30.1,30.5s13.5,30.5,30.1,30.5c17.1,0,30.9-13.7,30.9-30.5
				S374.8,845.464,357.8,845.464z M357.8,886.464c-5.5,0-10.1-4.8-10.1-10.5s4.6-10.5,10.1-10.5c6.1,0,10.9,4.6,10.9,10.5
				S363.9,886.464,357.8,886.464z"/>
			<path d="M379,612.064L379,612.064l-20.8,0h-56.3l13.8-26.6c2.3-4.4,1-9.8-3-12.7l-41.9-30.5c-4.5-3.2-10.7-2.3-14,2.2
				c-3.2,4.5-2.3,10.7,2.2,14l35,25.4l-14.6,28.1h-60.5l13.8-26.6c2.3-4.4,1-9.7-2.9-12.6l-41.3-30.3c-4.4-3.3-10.7-2.4-14,2.1
				c-3.3,4.4-2.4,10.7,2.1,14l34.3,25.4l-14.6,28.1h-65.9c0,0,0,0-0.1,0h-20.8c-22.6,0-41.1,18.2-41.1,40.5v263.7
				c0,22.3,18.4,40.5,41.1,40.5h37.8l-55,54.6c-3.9,3.9-3.9,10.2-0.1,14.1c2,2,4.5,3,7.1,3c2.5,0,5.1-1,7-2.9l69.3-68.7h136.9
				l69.3,68.7c2,1.9,4.5,2.9,7,2.9c2.6,0,5.1-1,7.1-3c3.9-3.9,3.9-10.3-0.1-14.1l-55-54.6h37.8c22.6,0,41.1-18.2,41.1-40.5v-263.7
				C420,630.264,401.6,612.064,379,612.064z M345.7,632.064l-4.6,20.4H147.6l-4.5-20.4H345.7z M307.6,805.064
				c-0.5-0.1-1-0.1-1.6-0.1H182.6c-0.3,0-0.7,0-1,0l-29.5-132.5h184.7L307.6,805.064z M303.2,824.964l-4.5,20.4H190.5l-4.5-20.4
				H303.2z M400,916.364c0,11.3-9.4,20.5-21.1,20.5H109.5c-11.6,0-21.1-9.2-21.1-20.5v-263.8c0-11.3,9.4-20.5,21.1-20.5h12.9
				l50.3,225.4c1,4.6,5.1,7.8,9.8,7.8h124.2c4.7,0,8.8-3.3,9.8-7.9l49.5-225.4h12.9c11.6,0,21.1,9.2,21.1,20.5V916.364z"/>
		</g>
	</g>
</g>
<g>
</g>
<g>
</g>
<g>
</g>
<g>
</g>
<g>
</g>
<g>
</g>
<g>
</g>
<g>
</g>
<g>
</g>
<g>
</g>
<g>
</g>
<g>
</g>
<g>
</g>
<g>
</g>
<g>
</g>
</svg>
